<svg viewBox="0 0 136.93963623046875 18.5401611328125" fill="none" xmlns="http://www.w3.org/2000/svg"><path d="M7.634809532588764 0.01072304821943297H12.503063578551355L7.516861524740623 5.661754266557902L13.897049101814213 15.387567073025668H9.350478256069657L4.943320956042213 8.514096937705826L3.8281125462441548 9.790134453120544V15.387567073025668H0V0.01072304821943297H3.8281125462441548V4.77174658699871L7.634809532588764 0.01072304821943297Z" fill="black"></path><path d="M21.6197948716101 15.37684679858354C17.07322402586554 15.37684679858354 13.759809597767182 12.020526283731947 13.759809597767182 7.6884109047994125C13.759809597767182 3.3563205148515913 17.07322402586554 0 21.6197948716101 0C26.166465673293512 0 29.4797551564683 3.3563205148515913 29.4797551564683 7.6884109047994125C29.4797551564683 12.020526283731947 26.166465673293512 15.37684679858354 21.6197948716101 15.37684679858354ZM21.6197948716101 3.517149620468251C19.17494757418667 3.517149620468251 17.662989054090957 5.361511615224129 17.662989054090957 7.6884109047994125C17.662989054090957 10.015310194374697 19.17494757418667 11.848951914688444 21.6197948716101 11.848951914688444C24.064642169033526 11.848951914688444 25.57647574420567 10.015310194374697 25.57647574420567 7.6884109047994125C25.57647574420567 5.361511615224129 24.064642169033526 3.517149620468251 21.6197948716101 3.517149620468251Z" fill="black"></path><path d="M46.23137094906995 15.37684679858354H44.054580490669196L35.90492290602635 6.701895766276339V15.37684679858354H32.066115074324784V0H34.232160269298696L42.39256311736838 8.674926043322488V0H46.23137094906995V15.37684679858354Z" fill="black"></path><path d="M49.57914523114949 15.37684679858354V0H53.4286983262779V11.848951914688444H59.27262229139787V0H63.111430123099446V11.838231640246315H65.24548941763996V18.540127406522654H61.39593632251155V15.37684679858354H49.57914523114949Z" fill="black"></path><path d="M67.7996135452159 0H78.93020711634281V3.495709071583992H71.63842137691749V5.275724430702377H77.14999184534672V8.717832130075719H71.63842137691749V11.838231640246315H78.93020711634281V15.37684679858354H67.7996135452159V0Z" fill="black"></path><path d="M81.85966579431688 0H95.52089384738895V15.37684679858354H91.68208601568737V3.5278698949103804H85.70921888944528V15.37684679858354H81.85966579431688V0Z" fill="black"></path><path d="M98.85792286604165 15.37684679858354V0H102.70747596117006V11.848951914688444H108.55139992629002V0H112.3902077579916V11.838231640246315H114.52426705253211V18.540127406522654H110.6747139574037V15.37684679858354H98.85792286604165Z" fill="black"></path><path d="M117.07839118010806 15.37684679858354V0H120.93868953866333V15.37684679858354H117.07839118010806Z" fill="black"></path><path d="M136.93963623046875 15.37684679858354H133.09008313534034V9.47917152734464H130.7845994056646L127.40683834192875 15.37684679858354H122.94605468070594L126.77411724898067 8.996634232525235C126.08791972874552 8.717832130075719 125.43370810894375 8.288921196451673 124.99415186783172 7.731316991552645C124.36143077488364 6.927071507530491 123.98609622448552 5.908395545681027 123.98609622448552 4.75030603811445C123.98609622448552 2.948825141127092 124.82247754284936 1.5441168445236317 126.09866499217236 0.7398888527907768C126.87057472997513 0.24662978419015702 127.80366341918054 0 129.1548178226443 0H136.93963623046875V15.37684679858354ZM129.46568079248135 5.9727421813185195H133.09008313534034V3.5278698949103804H129.46568079248135C129.00463402451564 3.5278698949103804 128.7794832722462 3.5600557072214833 128.58631842041015 3.6458428917432353C128.12527165244444 3.838857809670998 127.78217289232686 4.214142382099681 127.78217289232686 4.75030603811445C127.78217289232686 5.307910243013479 128.14676217929812 5.672499529984745 128.58631842041015 5.854769184485665C128.79022853567307 5.940556369007417 129.00463402451564 5.9727421813185195 129.46568079248135 5.9727421813185195Z" fill="black"></path></svg>